<svg xmlns="http://www.w3.org/2000/svg" viewBox="0 0 48 48"><title>pao-favicon</title><g id="Capa_3" data-name="Capa 3"><path d="M28.15,7.05a3.57,3.57,0,0,0-1.7,2A8.47,8.47,0,0,0,26,11.93a22.68,22.68,0,0,0,1,5.95A56.16,56.16,0,0,0,29,23.67c.79,1.88,1.72,3.84,2.4,5.88A24.31,24.31,0,0,1,32.76,36a12.58,12.58,0,0,1-1.25,6.67,9.63,9.63,0,0,1-2.14,2.78,9,9,0,0,1-3,1.77,5.6,5.6,0,0,1-3.62.06,4.15,4.15,0,0,1-2.46-2.53.42.42,0,0,1,.25-.53.42.42,0,0,1,.48.15,3.48,3.48,0,0,0,2.15,1.47,4.37,4.37,0,0,0,2.53-.41,7.79,7.79,0,0,0,3.87-3.75,11.08,11.08,0,0,0,.9-5.54,25.72,25.72,0,0,0-1.17-5.85c-.59-1.95-1.4-3.81-2.17-5.81a45.54,45.54,0,0,1-1.9-6.11,21.36,21.36,0,0,1-.65-6.45,9,9,0,0,1,.83-3.26A4.25,4.25,0,0,1,28,6.28a.39.39,0,0,1,.48.27.39.39,0,0,1-.22.47Z"/><path d="M27.35,21.84a19.29,19.29,0,0,1,2,10.66,13.87,13.87,0,0,1-.67,2.74,6.67,6.67,0,0,1-1.56,2.57,4.45,4.45,0,0,1-1.38.92A3.67,3.67,0,0,1,24,39a4.86,4.86,0,0,1-2.92-1.45,7,7,0,0,1-1.81-5.7,10.38,10.38,0,0,1,2.22-5.3c2.29-3,5.41-4.91,7.59-7.62a19.26,19.26,0,0,0,2.78-4.37,14.9,14.9,0,0,0,1.42-4.88,6.81,6.81,0,0,0-1-4.55A4.61,4.61,0,0,0,28.45,3a7.07,7.07,0,0,0-2.31.25A7.75,7.75,0,0,0,24,4.2a12.31,12.31,0,0,0-3.43,3.43A33,33,0,0,0,16.4,17h0a.37.37,0,0,1-.72-.12A21.07,21.07,0,0,1,18.83,6.45a12.89,12.89,0,0,1,4.05-4.07,8.65,8.65,0,0,1,2.76-1.13,9.2,9.2,0,0,1,3-.24A6.57,6.57,0,0,1,33.7,4.15a8.31,8.31,0,0,1,1,5.69,17.07,17.07,0,0,1-1.8,5.23,24,24,0,0,1-3,4.53c-1.2,1.38-2.53,2.57-3.73,3.88a27.27,27.27,0,0,0-3.24,4.05A9.86,9.86,0,0,0,21.16,32a6.15,6.15,0,0,0,.22,2.27,4.4,4.4,0,0,0,1,1.9,3,3,0,0,0,1.73.94,2.28,2.28,0,0,0,1.74-.61,5,5,0,0,0,1.34-1.86A10,10,0,0,0,28,32.28a17.83,17.83,0,0,0-1.4-10.11.4.4,0,0,1,.21-.53A.4.4,0,0,1,27.35,21.84Z"/></g></svg>